<?xml version="1.0" encoding="utf-8"?>
<svg xmlns="http://www.w3.org/2000/svg" xmlns:xlink="http://www.w3.org/1999/xlink" version= "1.1" width="1618px" height="1000px" viewBox="-350 195 1618 1000">
<g id="layer1">
<g style="fill:rgb(55,94,109); fill-opacity:1.0; stroke-linejoin: miter">
<path d="M-350.001,193.49039C-350.40115,193.49039,-350.7849,193.64934,-351.06784,193.93228C-351.35077,194.21523,-351.50974,194.59898,-351.50974,194.99911L-351.50873,1195.0001C-351.50873,1195.8334,-350.83325,1196.5088,-350.0,1196.5088L1268.001,1196.5098C1268.4011,1196.5098,1268.7848,1196.3508,1269.0677,1196.0679C1269.3507,1195.7849,1269.5096,1195.4012,1269.5096,1195.0011L1269.5087,195.00012C1269.5087,194.16689,1268.8333,193.4914,1268.0,193.4914L-350.001,193.49039 Z"/>
</g>
<g style="fill:rgb(168,177,180); fill-opacity:0.99607843; stroke-linejoin: miter">
<path d="M643.9322,412.25616L763.5407,412.25684L883.14923,412.2575Q883.14923,421.8103,883.14923,431.3631Q763.5407,431.36377,643.9322,431.36444Q643.9322,421.8103,643.9322,412.25616"/>
</g>
<g style="fill:rgb(179,233,255); fill-opacity:1.0; stroke-linejoin: miter">
<path d="M338.5818,514.4017C338.49915,514.40155,338.41693,514.40155,338.33453,514.40155C313.20413,514.45325,290.56564,523.83826,273.16162,541.3132C265.07684,549.5006,260.6948,555.483,252.14212,570.0561C252.09781,570.1364,252.03647,570.17615,251.95749,570.17615C251.42654,570.17615,250.11105,568.37006,248.01169,564.847C237.53877,546.9478,221.57845,531.94354,204.87823,524.288C191.33582,518.04285,176.75946,514.9201,161.25218,514.92C157.24315,514.92,153.17155,515.12897,149.03935,515.5459C123.845795,518.00024,103.403885,527.31274,87.02766,543.6867C72.570335,558.2044,63.40673,576.14325,58.9215,598.87933C56.88274,609.18317,56.78603,629.09344,58.73034,639.5954C65.11769,674.0498,84.06829,707.7234,120.54401,749.32556C136.09789,767.1454,166.64366,796.5384,193.74438,819.9655C208.94562,833.1174,242.37137,860.6501,251.58636,867.63446C251.60852,867.6514,251.64105,867.6597,251.68347,867.65985C253.19153,867.66,267.18274,857.0445,287.85248,840.4393C352.69788,788.12317,399.48962,737.6302,423.9796,693.43097C443.6126,658.0303,450.68524,625.1267,444.99512,595.9578C442.21948,581.81915,436.0788,567.2762,428.3671,556.58093C422.9271,549.039,411.78207,538.3506,404.15005,533.2857C386.0624,521.2808,362.1214,514.40155,338.5818,514.4017 Z"/>
</g>
<g style="fill:rgb(161,213,234); fill-opacity:1.0; stroke-linejoin: miter">
<path d="M632.112,464.98965L744.69214,464.9902L857.2719,464.9907Q857.27185,606.5355,857.2721,748.08057Q744.6921,748.0812,632.11224,748.08185Q632.11194,606.5356,632.112,464.98965"/>
</g>
<g style="fill:rgb(152,225,255); fill-opacity:1.0; stroke-linejoin: miter">
<path d="M676.9111,398.48108L686.6535,398.4817L696.3962,398.48236Q696.39655,451.17847,696.39624,503.8744Q686.6535,503.87494,676.9111,503.8756Q676.9112,451.17834,676.9111,398.48108"/>
</g>
<g style="fill:rgb(152,225,255); fill-opacity:1.0; stroke-linejoin: miter">
<path d="M799.91724,398.48096L809.6599,398.4817L819.4026,398.48224Q819.40265,451.17828,819.40265,503.87427Q809.66,503.87494,799.91724,503.8756Q799.9175,451.17828,799.91724,398.48096"/>
</g>
<g style="fill:rgb(152,225,255); fill-opacity:1.0; stroke-linejoin: miter">
<path d="M636.21564,470.0325L744.03687,470.03293L851.85846,470.0336Q851.8584,607.603,851.85864,745.1726Q744.0372,745.1732,636.2159,745.174Q636.2156,607.60297,636.21564,470.0325"/>
</g>
<g style="fill:rgb(255,1,1); fill-opacity:0.99607843; stroke-linejoin: miter">
<path d="M644.513,482.29904L745.30237,482.2996L846.09186,482.30026Q846.0918,606.4192,846.09204,730.5382Q745.3027,730.5388,644.513,730.5395Q644.51294,606.41925,644.513,482.29904"/>
</g>
<g style="fill:rgb(152,225,255); fill-opacity:1.0; stroke-linejoin: miter">
<path d="M757.2172,739.3495L757.2172,739.3495C754.2711,844.6234,751.69073,955.4665,698.4594,1006.7059L698.4594,1006.7059C679.50995,1024.9463,654.2484,1035.6486,628.07947,1035.6486L628.07947,1035.6486C578.53784,1035.6486,528.9333,997.7454,511.44217,908.92413L511.44217,908.92413C498.84494,844.954,502.60275,753.38116,506.2419,663.5752L506.2419,663.5752C509.87796,573.85376,513.3949,485.90396,501.5316,425.66046L501.5316,425.66046C500.04868,418.13016,498.33298,411.07986,496.3621,404.55356L496.3621,404.55356C479.8825,349.98563,445.15457,330.2093,408.5464,330.20947L408.5464,330.20947C370.87088,330.20935,330.02795,351.21106,303.4475,380.88657L303.4475,380.88657C250.54276,439.95148,254.54077,532.9667,259.18674,630.5613C259.37595,634.5342,256.3087,637.9081,252.3359,638.09717C248.3631,638.2863,244.9892,635.21906,244.79993,631.2463L244.79993,631.2463C240.25333,535.7379,235.05864,435.6508,292.71896,371.27692L292.71896,371.27692C321.49866,339.14597,366.04004,315.80627,408.5464,315.80627L408.5464,315.80627C451.89413,315.8062,491.9496,340.12247,510.15012,400.38956L510.15012,400.38956C512.27985,407.44168,514.1043,414.96054,515.6635,422.87775L515.6635,422.87775C527.9335,485.18613,524.24005,575.1604,520.6334,664.15845L520.6334,664.15845C516.9654,754.6746,513.3827,844.23267,525.574,906.14105L525.574,906.14105C542.1976,990.5584,587.56055,1021.2453,628.07947,1021.2454L628.07947,1021.2454C650.32385,1021.2453,672.0579,1012.1281,688.4709,996.32904L688.4709,996.32904C736.3863,950.2065,739.7855,847.3613,742.81976,738.94666C742.93097,734.9707,746.2442,731.8379,750.22015,731.94934C754.196,732.06067,757.32855,735.37366,757.2172,739.3495 Z"/>
</g>
<g style="fill:rgb(255,1,1); fill-opacity:1.0; stroke-linejoin: miter">
<path d="M752.72797,728.4149L752.72797,728.4149C750.3994,805.2535,748.07556,882.5835,730.6219,938.70844L730.6219,938.70844C713.15155,994.88654,680.242,1030.5852,634.3296,1032.586L634.3296,1032.586C633.00037,1032.6442,631.66125,1032.6732,630.3124,1032.6735L630.3124,1032.6735C585.00134,1032.6735,530.45966,999.4571,514.026,892.0365L514.026,892.0365C504.49564,829.73914,507.71982,742.2038,510.824,657.67096L510.824,657.67096C513.22076,592.40436,515.54956,528.9065,511.9835,479.7717L511.9835,479.7717C503.7958,366.95273,464.7265,331.08282,416.2271,327.53168L416.2271,327.53168C413.53357,327.33447,410.80682,327.2364,408.05273,327.2364L408.05273,327.2364C360.3952,327.2364,305.11063,356.635,277.9513,409.85583L277.9513,409.85583C249.12207,466.34952,251.80005,549.8135,254.5759,634.23584C254.61844,635.5309,253.60324,636.6151,252.30832,636.6576C251.0134,636.7003,249.92902,635.6849,249.88647,634.3901L249.88647,634.3901C247.12631,550.4434,244.26843,465.53824,273.772,407.7232L273.772,407.7232C301.75272,352.89307,358.67572,322.54443,408.05273,322.54443L408.05273,322.54443C410.9184,322.54443,413.75916,322.64648,416.56976,322.85223L416.56976,322.85223C468.60828,326.6626,508.41373,365.76334,516.6633,479.43216L516.6633,479.43216C520.25183,528.87854,517.9063,592.669,515.5129,657.8431L515.5129,657.8431C512.4021,742.5535,509.21622,829.56946,518.66406,891.3268L518.66406,891.3268C534.8575,997.1773,587.9791,1027.9816,630.3124,1027.9816L630.3124,1027.9816C631.59094,1027.9813,632.86523,1027.9535,634.125,1027.8986L634.12524,1027.8986C677.1612,1026.023,708.9371,992.6379,726.14166,937.3151L726.14166,937.3151C743.3623,881.9391,745.70264,805.3514,748.03827,728.2728C748.07733,726.9778,749.159,725.9597,750.4543,725.999C751.7493,726.0382,752.7673,727.1199,752.72797,728.4149 Z"/>
</g>
<g style="fill:rgb(87,96,105); fill-opacity:0.99607843; stroke-linejoin: miter">
<path d="M386.18674,534.59045L386.18668,534.59094L386.18668,534.59143L386.18668,534.59094L386.18674,534.59045L386.18668,534.59094L386.18668,534.59143Q386.18668,534.59094,386.18674,534.59045"/>
</g>
<g style="fill:rgb(255,255,255); fill-opacity:0.25882354; stroke-linejoin: miter">
<path d="M676.9111,398.48108Q676.91113,431.73547,676.91113,464.98987L632.11835,464.98965Q632.11194,606.5356,632.11224,748.08185Q687.3296,748.08154,742.547,748.0812L742.55444,748.08215C742.54614,748.63116,742.5304,749.18097,742.5145,749.7306L743.97784,749.73157Q743.97784,607.3604,743.97784,464.9902L696.4033,464.98996Q696.3964,431.7362,696.3962,398.48236L686.6535,398.4817L676.91785,398.48108 Z"/>
</g>
<g style="fill:rgb(255,255,255); fill-opacity:0.99607843; stroke-linejoin: miter">
<path d="M248.26372,565.26794C248.3087,576.37134,248.51537,587.5981,248.80383,598.87933L248.8035,598.8803C248.51471,587.5981,248.30742,576.37134,248.26123,565.26794 Z"/>
</g>
<g style="fill:rgb(179,233,255); fill-opacity:0.35686275; stroke-linejoin: miter">
<path d="M346.08414,500.2143C345.99454,500.21417,345.90543,500.21417,345.81607,500.21417C318.57193,500.2702,294.02927,510.44464,275.1614,529.3894C266.39658,538.26544,261.64597,544.751,252.37392,560.54987C252.32588,560.6369,252.25938,560.68,252.17378,560.68C251.59816,560.68,250.17201,558.722,247.89607,554.9026C236.54228,535.4979,219.23952,519.23157,201.13463,510.93213C186.45312,504.16168,170.65074,500.7763,153.83913,500.77612C149.49289,500.77612,145.07884,501.0027,140.59908,501.4547C113.28646,504.11548,91.12515,514.2113,73.371506,531.9624C57.698174,547.70123,47.763798,567.1489,42.901314,591.7974C40.69107,602.9679,40.586224,624.5528,42.69407,635.9381C49.61867,673.2905,70.16323,709.79645,109.70694,754.8979C126.56906,774.2165,159.68408,806.0818,189.06427,831.4794C205.54408,845.7375,241.78128,875.58594,251.77138,883.1578C251.7954,883.1762,251.83064,883.1852,251.87663,883.1853C253.51155,883.1855,268.67957,871.67706,291.0879,853.67523C361.38754,796.9588,412.11493,742.2188,438.66486,694.302C459.94916,655.9237,467.61676,620.2527,461.448,588.6304C458.4389,573.30237,451.78174,557.5362,443.4214,545.94135C437.5238,537.765,425.44135,526.1776,417.16742,520.6867C397.5584,507.67206,371.60367,500.21417,346.08414,500.2143 Z"/>
</g>
<g style="fill:rgb(255,0,0); fill-opacity:0.99607843; stroke-linejoin: miter">
<path d="M242.5057,679.88257Q241.1832,679.88257,239.53592,680.8148Q221.097,695.3164,215.01796,697.2156Q204.61836,702.4153,186.95204,706.3418Q166.97346,711.7871,94.33459,716.636C101.81585,727.0541,110.517876,737.8905,120.54401,749.32556C136.09789,767.1454,166.64366,796.5384,193.74438,819.9655C208.94562,833.1174,242.37137,860.6501,251.58636,867.63446C251.60852,867.6514,251.64105,867.6597,251.68347,867.65985C253.1919,867.65985,267.18292,857.0444,287.85248,840.4393C345.02386,794.31445,388.16187,749.6065,414.35498,709.37994Q326.32852,703.2055,301.49368,698.7493Q280.75714,695.4705,270.83813,692.07086L261.3581,688.5987L245.75742,680.66736Q244.32748,679.9551,242.54678,679.8828Q242.52621,679.88257,242.5057,679.88257 Z"/>
</g>
<g style="fill:rgb(255,1,1); fill-opacity:0.99607843; stroke-linejoin: miter">
<path d="M252.884,643.1499L252.23026,644.8707Q250.89676,648.3246,249.87347,651.63336Q248.85022,654.9423,248.55084,657.9134Q248.414,659.3929,248.53577,660.75165L248.73499,662.0743L249.05301,663.23206Q249.43729,664.359,250.0369,665.3375Q250.63654,666.316,251.4018,667.12103L252.19604,667.8764Q253.02551,668.5854,253.94604,669.08344Q254.86664,669.5817,255.82861,669.8443Q256.59674,670.1126,258.13202,670.09735Q259.9441,669.86163,260.59174,669.4272Q261.50757,668.9649,262.28326,668.2408Q263.8589,666.7685,264.58246,664.53705Q265.30606,662.3058,264.78915,659.69885L264.42728,658.4004Q263.97574,657.09033,263.2253,655.74207Q260.59872,651.0233,252.884,643.1499"/>
</g>
<g style="fill:rgb(179,233,255); fill-opacity:0.41960785; stroke-linejoin: miter">
<path d="M975.98773,1106.9423L971.5773,1107.5936Q957.6411,1108.4686,919.8464,1109.1879L899.45776,1109.5377Q877.57794,1109.8779,849.73364,1110.1791Q821.8892,1110.4803,788.0802,1110.7427Q719.9943,1111.2668,641.1617,1111.514Q540.2701,1111.7623,516.86786,1111.7289Q473.42166,1111.7485,427.2887,1111.6991Q383.26086,1111.6299,343.15094,1111.5013Q320.64728,1111.4741,231.63655,1110.9824Q163.17056,1110.5476,110.37634,1109.8757Q4.873081,1108.5227,10.875668,1106.7426Q15.49614,1105.8219,48.44316,1105.0659Q64.3582,1104.6869,86.237915,1104.3467Q146.15631,1103.5304,165.2976,1103.4138Q178.38815,1103.2333,268.3882,1102.6869Q305.11786,1102.494,344.53412,1102.3705Q423.3667,1102.1233,512.9459,1102.1531Q605.6003,1102.199,681.6751,1102.5264Q703.1992,1102.5684,787.31256,1103.1342Q819.5866,1103.3811,847.94275,1103.6875Q905.42255,1104.3077,938.0202,1105.0736Q973.9585,1105.8729,975.98773,1106.9423"/>
</g>
</g>
</svg>